# This file uses centimeters as units for non-parametric coordinates.

mtllib pozo.mtl
g default
v 17.762577 -2.342403 -25.063483
v 17.510431 -2.422952 -25.445100
v 17.129563 -2.454406 -25.709008
v 16.677948 -2.431975 -25.815014
v 16.224344 -2.359075 -25.746994
v 15.837807 -2.246804 -25.515298
v 15.577185 -2.112253 -25.155201
v 15.482157 -1.975909 -24.721528
v 15.567188 -1.858526 -24.280287
v 15.819333 -1.777975 -23.898668
v 16.200208 -1.746522 -23.634769
v 16.651823 -1.768952 -23.528752
v 17.105426 -1.841852 -23.596779
v 17.491958 -1.954124 -23.828470
v 17.752577 -2.088674 -24.188567
v 17.847607 -2.225019 -24.622247
v 17.728963 -1.144952 -25.337752
v 17.515835 -1.213038 -25.660330
v 17.193887 -1.239625 -25.883397
v 16.812144 -1.220666 -25.973010
v 16.428717 -1.159044 -25.915514
v 16.101984 -1.064143 -25.719662
v 15.881687 -0.950409 -25.415278
v 15.801360 -0.835159 -25.048695
v 15.873235 -0.735937 -24.675724
v 16.086369 -0.667851 -24.353150
v 16.408318 -0.641262 -24.130074
v 16.790062 -0.660222 -24.040471
v 17.173485 -0.721845 -24.097966
v 17.500217 -0.816745 -24.293812
v 17.720513 -0.930478 -24.598198
v 17.800837 -1.045729 -24.964779
v 17.651247 -1.127822 -25.310024
v 17.455965 -1.190205 -25.605584
v 17.160984 -1.214566 -25.809969
v 16.811216 -1.197194 -25.892075
v 16.459909 -1.140734 -25.839394
v 16.160545 -1.053782 -25.659948
v 15.958696 -0.949575 -25.381059
v 15.885097 -0.843977 -25.045181
v 15.950954 -0.753066 -24.703449
v 16.146237 -0.690683 -24.407899
v 16.441216 -0.666322 -24.203505
v 16.790986 -0.683694 -24.121403
v 17.142295 -0.740153 -24.174085
v 17.441658 -0.827106 -24.353526
v 17.643503 -0.931312 -24.632417
v 17.717100 -1.036910 -24.968293
v 17.510088 -2.329927 -24.963023
v 17.314807 -2.392311 -25.258585
v 17.019826 -2.416671 -25.462968
v 16.670058 -2.399300 -25.545076
v 16.318749 -2.342840 -25.492394
v 16.019384 -2.255888 -25.312948
v 15.817537 -2.151681 -25.034060
v 15.743939 -2.046082 -24.698179
v 15.809793 -1.955172 -24.356448
v 16.005077 -1.892788 -24.060895
v 16.300056 -1.868428 -23.856506
v 16.649827 -1.885798 -23.774400
v 17.001135 -1.942258 -23.827081
v 17.300500 -2.029212 -24.006527
v 17.502345 -2.133418 -24.285416
v 17.575942 -2.239017 -24.621292
v 16.955825 -2.207764 -24.765293
v 16.887859 -2.229476 -24.868160
v 16.785194 -2.237955 -24.939293
v 16.663461 -2.231909 -24.967871
v 16.541191 -2.212259 -24.949535
v 16.437000 -2.181996 -24.887081
v 16.366749 -2.145727 -24.790016
v 16.341134 -2.108975 -24.673116
v 16.364054 -2.077334 -24.554180
v 16.432021 -2.055622 -24.451316
v 16.534685 -2.047144 -24.380180
v 16.656420 -2.053189 -24.351604
v 16.778689 -2.072840 -24.369939
v 16.882880 -2.103103 -24.432393
v 16.953130 -2.139371 -24.529458
v 16.978745 -2.176124 -24.646356
vt 0.375000 0.312500
vt 0.390625 0.312500
vt 0.406250 0.312500
vt 0.421875 0.312500
vt 0.437500 0.312500
vt 0.453125 0.312500
vt 0.468750 0.312500
vt 0.484375 0.312500
vt 0.500000 0.312500
vt 0.515625 0.312500
vt 0.531250 0.312500
vt 0.546875 0.312500
vt 0.562500 0.312500
vt 0.578125 0.312500
vt 0.593750 0.312500
vt 0.609375 0.312500
vt 0.625000 0.312500
vt 0.375000 0.687500
vt 0.390625 0.687500
vt 0.406250 0.687500
vt 0.421875 0.687500
vt 0.437500 0.687500
vt 0.453125 0.687500
vt 0.468750 0.687500
vt 0.484375 0.687500
vt 0.500000 0.687500
vt 0.515625 0.687500
vt 0.531250 0.687500
vt 0.546875 0.687500
vt 0.562500 0.687500
vt 0.578125 0.687500
vt 0.593750 0.687500
vt 0.609375 0.687500
vt 0.625000 0.687500
vt 0.000000 0.000000
vt 1.000000 0.000000
vt 1.000000 1.000000
vt 0.000000 1.000000
vt 0.000000 0.000000
vt 1.000000 0.000000
vt 1.000000 1.000000
vt 0.000000 1.000000
vt 0.000000 0.000000
vt 1.000000 0.000000
vt 1.000000 1.000000
vt 0.000000 1.000000
vt 0.000000 0.000000
vt 1.000000 0.000000
vt 1.000000 1.000000
vt 0.000000 1.000000
vt 0.000000 0.000000
vt 1.000000 0.000000
vt 1.000000 1.000000
vt 0.000000 1.000000
vt 0.000000 0.000000
vt 1.000000 0.000000
vt 1.000000 1.000000
vt 0.000000 1.000000
vt 0.000000 0.000000
vt 1.000000 0.000000
vt 1.000000 1.000000
vt 0.000000 1.000000
vt 0.000000 0.000000
vt 1.000000 0.000000
vt 1.000000 1.000000
vt 0.000000 1.000000
vt 0.000000 0.000000
vt 1.000000 0.000000
vt 1.000000 1.000000
vt 0.000000 1.000000
vt 0.000000 0.000000
vt 1.000000 0.000000
vt 1.000000 1.000000
vt 0.000000 1.000000
vt 0.000000 0.000000
vt 1.000000 0.000000
vt 1.000000 1.000000
vt 0.000000 1.000000
vt 0.000000 0.000000
vt 1.000000 0.000000
vt 1.000000 1.000000
vt 0.000000 1.000000
vt 0.000000 0.000000
vt 1.000000 0.000000
vt 1.000000 1.000000
vt 0.000000 1.000000
vt 0.000000 0.000000
vt 1.000000 0.000000
vt 1.000000 1.000000
vt 0.000000 1.000000
vt 0.000000 0.000000
vt 1.000000 0.000000
vt 1.000000 1.000000
vt 0.000000 1.000000
vt 0.000000 0.000000
vt 1.000000 0.000000
vt 1.000000 1.000000
vt 0.000000 1.000000
vt 0.000000 0.000000
vt 1.000000 0.000000
vt 1.000000 1.000000
vt 0.000000 1.000000
vt 0.000000 0.000000
vt 1.000000 0.000000
vt 1.000000 1.000000
vt 0.000000 1.000000
vt 0.000000 0.000000
vt 1.000000 0.000000
vt 1.000000 1.000000
vt 0.000000 1.000000
vt 0.000000 0.000000
vt 1.000000 0.000000
vt 1.000000 1.000000
vt 0.000000 1.000000
vt 0.000000 0.000000
vt 1.000000 0.000000
vt 1.000000 1.000000
vt 0.000000 1.000000
vt 0.000000 0.000000
vt 1.000000 0.000000
vt 1.000000 1.000000
vt 0.000000 1.000000
vt 0.000000 0.000000
vt 1.000000 0.000000
vt 1.000000 1.000000
vt 0.000000 1.000000
vt 0.000000 0.000000
vt 1.000000 0.000000
vt 1.000000 1.000000
vt 0.000000 1.000000
vt 0.000000 0.000000
vt 1.000000 0.000000
vt 1.000000 1.000000
vt 0.000000 1.000000
vt 0.000000 0.000000
vt 1.000000 0.000000
vt 1.000000 1.000000
vt 0.000000 1.000000
vt 0.000000 0.000000
vt 1.000000 0.000000
vt 1.000000 1.000000
vt 0.000000 1.000000
vt 0.000000 0.000000
vt 1.000000 0.000000
vt 1.000000 1.000000
vt 0.000000 1.000000
vt 0.000000 0.000000
vt 1.000000 0.000000
vt 1.000000 1.000000
vt 0.000000 1.000000
vt 0.000000 0.000000
vt 1.000000 0.000000
vt 1.000000 1.000000
vt 0.000000 1.000000
vt 0.000000 0.000000
vt 1.000000 0.000000
vt 1.000000 1.000000
vt 0.000000 1.000000
vt 0.000000 0.000000
vt 1.000000 0.000000
vt 1.000000 1.000000
vt 0.000000 1.000000
vt 0.000000 0.000000
vt 1.000000 0.000000
vt 1.000000 1.000000
vt 0.000000 1.000000
vt 0.000000 0.000000
vt 1.000000 0.000000
vt 1.000000 1.000000
vt 0.000000 1.000000
vt 0.000000 0.000000
vt 1.000000 0.000000
vt 1.000000 1.000000
vt 0.000000 1.000000
vt 0.000000 0.000000
vt 1.000000 0.000000
vt 1.000000 1.000000
vt 0.000000 1.000000
vt 0.000000 0.000000
vt 1.000000 0.000000
vt 1.000000 1.000000
vt 0.000000 1.000000
vt 0.000000 0.000000
vt 1.000000 0.000000
vt 1.000000 1.000000
vt 0.000000 1.000000
vt 0.000000 0.000000
vt 1.000000 0.000000
vt 1.000000 1.000000
vt 0.000000 1.000000
vt 0.000000 0.000000
vt 1.000000 0.000000
vt 1.000000 1.000000
vt 0.000000 1.000000
vt 0.000000 0.000000
vt 1.000000 0.000000
vt 1.000000 1.000000
vt 0.000000 1.000000
vt 0.000000 0.000000
vt 1.000000 0.000000
vt 1.000000 1.000000
vt 0.000000 1.000000
vt 0.000000 0.000000
vt 1.000000 0.000000
vt 1.000000 1.000000
vt 0.000000 1.000000
vt 0.000000 0.000000
vt 1.000000 0.000000
vt 1.000000 1.000000
vt 0.000000 1.000000
vt 0.000000 0.000000
vt 1.000000 0.000000
vt 1.000000 1.000000
vt 0.000000 1.000000
vt 0.000000 0.000000
vt 1.000000 0.000000
vt 1.000000 1.000000
vt 0.000000 1.000000
vt 0.000000 0.000000
vt 1.000000 0.000000
vt 1.000000 1.000000
vt 0.000000 1.000000
vt 0.000000 0.000000
vt 1.000000 0.000000
vt 1.000000 1.000000
vt 0.000000 1.000000
vn 0.928587 -0.057896 -0.366570
vn 0.719147 -0.124805 -0.683558
vn 0.719147 -0.124805 -0.683558
vn 0.928587 -0.057896 -0.366571
vn 0.402778 -0.150930 -0.902768
vn 0.402778 -0.150930 -0.902768
vn 0.027650 -0.132299 -0.990824
vn 0.027650 -0.132299 -0.990824
vn -0.349129 -0.071747 -0.934324
vn -0.349130 -0.071747 -0.934324
vn -0.670200 0.021511 -0.741869
vn -0.670200 0.021511 -0.741869
vn -0.886680 0.133274 -0.442760
vn -0.886680 0.133274 -0.442760
vn -0.965615 0.246528 -0.082529
vn -0.965615 0.246528 -0.082527
vn -0.894986 0.344030 0.283978
vn -0.894986 0.344030 0.283978
vn -0.685543 0.410937 0.600967
vn -0.685543 0.410937 0.600967
vn -0.369177 0.437064 0.820173
vn -0.369176 0.437064 0.820173
vn 0.005952 0.418434 0.908228
vn 0.005953 0.418434 0.908228
vn 0.382729 0.357880 0.851728
vn 0.382729 0.357880 0.851728
vn 0.703800 0.264622 0.659273
vn 0.703800 0.264622 0.659273
vn 0.920282 0.152860 0.360160
vn 0.920282 0.152860 0.360160
vn 0.999215 0.039608 -0.000067
vn 0.999215 0.039608 -0.000067
vn 0.112108 0.954718 -0.275581
vn 0.112108 0.954718 -0.275581
vn 0.112108 0.954718 -0.275581
vn 0.112108 0.954718 -0.275581
vn 0.112103 0.954717 -0.275587
vn 0.112103 0.954717 -0.275587
vn 0.112103 0.954717 -0.275587
vn 0.112103 0.954717 -0.275587
vn 0.112109 0.954716 -0.275589
vn 0.112109 0.954716 -0.275589
vn 0.112109 0.954716 -0.275589
vn 0.112109 0.954716 -0.275589
vn 0.112111 0.954717 -0.275585
vn 0.112111 0.954717 -0.275585
vn 0.112111 0.954717 -0.275585
vn 0.112111 0.954717 -0.275585
vn 0.112111 0.954717 -0.275584
vn 0.112111 0.954717 -0.275584
vn 0.112111 0.954717 -0.275584
vn 0.112111 0.954717 -0.275584
vn 0.112114 0.954716 -0.275587
vn 0.112114 0.954716 -0.275587
vn 0.112114 0.954716 -0.275587
vn 0.112114 0.954716 -0.275587
vn 0.112109 0.954716 -0.275590
vn 0.112109 0.954716 -0.275590
vn 0.112109 0.954716 -0.275590
vn 0.112109 0.954716 -0.275590
vn 0.112104 0.954717 -0.275587
vn 0.112104 0.954717 -0.275587
vn 0.112104 0.954717 -0.275587
vn 0.112104 0.954717 -0.275587
vn 0.112100 0.954718 -0.275584
vn 0.112100 0.954718 -0.275584
vn 0.112100 0.954718 -0.275584
vn 0.112100 0.954718 -0.275584
vn 0.112103 0.954719 -0.275580
vn 0.112103 0.954719 -0.275580
vn 0.112103 0.954719 -0.275580
vn 0.112103 0.954719 -0.275580
vn 0.112109 0.954712 -0.275601
vn 0.112109 0.954712 -0.275601
vn 0.112109 0.954712 -0.275601
vn 0.112109 0.954712 -0.275601
vn 0.112109 0.954714 -0.275595
vn 0.112109 0.954714 -0.275595
vn 0.112109 0.954714 -0.275595
vn 0.112109 0.954714 -0.275595
vn 0.112113 0.954716 -0.275586
vn 0.112113 0.954716 -0.275586
vn 0.112113 0.954716 -0.275586
vn 0.112113 0.954716 -0.275586
vn 0.112109 0.954716 -0.275590
vn 0.112109 0.954716 -0.275590
vn 0.112109 0.954716 -0.275590
vn 0.112109 0.954716 -0.275590
vn 0.112110 0.954715 -0.275592
vn 0.112110 0.954715 -0.275592
vn 0.112110 0.954715 -0.275592
vn 0.112110 0.954715 -0.275592
vn 0.112109 0.954716 -0.275589
vn 0.112109 0.954716 -0.275589
vn 0.112109 0.954716 -0.275589
vn 0.112109 0.954716 -0.275589
vn -0.832278 0.241737 0.498875
vn -0.832278 0.241737 0.498875
vn -0.832278 0.241737 0.498875
vn -0.832278 0.241737 0.498875
vn -0.561149 0.289709 0.775359
vn -0.561149 0.289709 0.775358
vn -0.561149 0.289709 0.775358
vn -0.561149 0.289709 0.775358
vn -0.204621 0.293573 0.933780
vn -0.204621 0.293573 0.933780
vn -0.204621 0.293573 0.933780
vn -0.204621 0.293573 0.933780
vn 0.183086 0.252743 0.950053
vn 0.183086 0.252743 0.950053
vn 0.183086 0.252743 0.950053
vn 0.183086 0.252743 0.950053
vn 0.542912 0.173434 0.821685
vn 0.542912 0.173434 0.821685
vn 0.542912 0.173434 0.821685
vn 0.542912 0.173434 0.821685
vn 0.820077 0.067726 0.568231
vn 0.820077 0.067726 0.568231
vn 0.820077 0.067726 0.568231
vn 0.820077 0.067726 0.568231
vn 0.972402 -0.048296 0.228259
vn 0.972402 -0.048296 0.228259
vn 0.972402 -0.048296 0.228259
vn 0.972402 -0.048296 0.228259
vn 0.976684 -0.156966 -0.146459
vn 0.976684 -0.156966 -0.146459
vn 0.976684 -0.156966 -0.146459
vn 0.976684 -0.156966 -0.146459
vn 0.832268 -0.241741 -0.498890
vn 0.832268 -0.241741 -0.498890
vn 0.832268 -0.241741 -0.498890
vn 0.832268 -0.241741 -0.498890
vn 0.561165 -0.289709 -0.775347
vn 0.561165 -0.289709 -0.775347
vn 0.561165 -0.289709 -0.775347
vn 0.561165 -0.289709 -0.775347
vn 0.204611 -0.293574 -0.933782
vn 0.204611 -0.293574 -0.933782
vn 0.204611 -0.293574 -0.933782
vn 0.204611 -0.293574 -0.933782
vn -0.183086 -0.252746 -0.950052
vn -0.183086 -0.252746 -0.950052
vn -0.183086 -0.252746 -0.950052
vn -0.183086 -0.252746 -0.950052
vn -0.542909 -0.173437 -0.821687
vn -0.542909 -0.173437 -0.821687
vn -0.542909 -0.173437 -0.821687
vn -0.542909 -0.173437 -0.821687
vn -0.820082 -0.067725 -0.568225
vn -0.820082 -0.067725 -0.568225
vn -0.820082 -0.067725 -0.568225
vn -0.820082 -0.067725 -0.568225
vn -0.972403 0.048296 -0.228256
vn -0.972402 0.048296 -0.228256
vn -0.972403 0.048296 -0.228256
vn -0.972402 0.048296 -0.228256
vn -0.976685 0.156964 0.146455
vn -0.976685 0.156964 0.146455
vn -0.976685 0.156964 0.146455
vn -0.976685 0.156964 0.146455
vn 0.112112 0.954717 -0.275585
vn 0.112112 0.954717 -0.275585
vn 0.112112 0.954717 -0.275585
vn 0.112112 0.954717 -0.275585
vn 0.112107 0.954716 -0.275591
vn 0.112107 0.954716 -0.275591
vn 0.112107 0.954716 -0.275591
vn 0.112107 0.954716 -0.275591
vn 0.112112 0.954716 -0.275588
vn 0.112112 0.954716 -0.275588
vn 0.112112 0.954716 -0.275588
vn 0.112112 0.954716 -0.275588
vn 0.112107 0.954716 -0.275589
vn 0.112107 0.954716 -0.275589
vn 0.112107 0.954716 -0.275589
vn 0.112107 0.954716 -0.275589
vn 0.112109 0.954716 -0.275590
vn 0.112109 0.954716 -0.275590
vn 0.112109 0.954716 -0.275590
vn 0.112109 0.954716 -0.275590
vn 0.112109 0.954716 -0.275589
vn 0.112109 0.954716 -0.275589
vn 0.112109 0.954716 -0.275589
vn 0.112109 0.954716 -0.275589
vn 0.112110 0.954715 -0.275592
vn 0.112110 0.954715 -0.275592
vn 0.112110 0.954715 -0.275592
vn 0.112110 0.954715 -0.275592
vn 0.112110 0.954716 -0.275587
vn 0.112110 0.954716 -0.275587
vn 0.112110 0.954716 -0.275587
vn 0.112110 0.954716 -0.275587
vn 0.112109 0.954716 -0.275589
vn 0.112109 0.954716 -0.275589
vn 0.112109 0.954716 -0.275589
vn 0.112109 0.954716 -0.275589
vn 0.112109 0.954716 -0.275589
vn 0.112109 0.954716 -0.275589
vn 0.112109 0.954716 -0.275589
vn 0.112109 0.954716 -0.275589
vn 0.112107 0.954716 -0.275590
vn 0.112107 0.954716 -0.275590
vn 0.112107 0.954716 -0.275590
vn 0.112107 0.954716 -0.275590
vn 0.112109 0.954715 -0.275590
vn 0.112109 0.954715 -0.275590
vn 0.112109 0.954715 -0.275590
vn 0.112109 0.954715 -0.275590
vn 0.112111 0.954715 -0.275591
vn 0.112111 0.954715 -0.275591
vn 0.112111 0.954715 -0.275591
vn 0.112111 0.954715 -0.275591
vn 0.112109 0.954716 -0.275589
vn 0.112109 0.954716 -0.275589
vn 0.112109 0.954716 -0.275589
vn 0.112109 0.954716 -0.275589
vn 0.112111 0.954714 -0.275594
vn 0.112111 0.954714 -0.275594
vn 0.112111 0.954714 -0.275594
vn 0.112111 0.954714 -0.275594
vn 0.112111 0.954716 -0.275587
vn 0.112111 0.954716 -0.275587
vn 0.112111 0.954716 -0.275587
vn 0.112111 0.954716 -0.275587
vn 0.112109 0.954716 -0.275589
vn 0.112109 0.954716 -0.275589
vn 0.112109 0.954716 -0.275589
vn 0.112109 0.954716 -0.275589
vn 0.112109 0.954716 -0.275589
vn 0.112109 0.954716 -0.275589
vn 0.112109 0.954716 -0.275589
vn 0.112109 0.954716 -0.275589
vn 0.112109 0.954716 -0.275589
vn 0.112109 0.954716 -0.275589
vn 0.112109 0.954716 -0.275589
vn 0.112109 0.954716 -0.275589
vn 0.112109 0.954716 -0.275589
vn 0.112109 0.954716 -0.275589
vn 0.112109 0.954716 -0.275589
vn 0.112109 0.954716 -0.275589
s 1
g pCylinder70
usemtl lambert29SG
f 1/1/1 2/2/2 18/19/3 17/18/4
f 2/2/2 3/3/5 19/20/6 18/19/3
f 3/3/5 4/4/7 20/21/8 19/20/6
f 4/4/7 5/5/9 21/22/10 20/21/8
f 5/5/9 6/6/11 22/23/12 21/22/10
f 6/6/11 7/7/13 23/24/14 22/23/12
f 7/7/13 8/8/15 24/25/16 23/24/14
f 8/8/15 9/9/17 25/26/18 24/25/16
f 9/9/17 10/10/19 26/27/20 25/26/18
f 10/10/19 11/11/21 27/28/22 26/27/20
f 11/11/21 12/12/23 28/29/24 27/28/22
f 12/12/23 13/13/25 29/30/26 28/29/24
f 13/13/25 14/14/27 30/31/28 29/30/26
f 14/14/27 15/15/29 31/32/30 30/31/28
f 15/15/29 16/16/31 32/33/32 31/32/30
f 16/16/31 1/17/1 17/34/4 32/33/32
s off
f 17/35/33 18/36/34 34/37/35 33/38/36
f 18/39/37 19/40/38 35/41/39 34/42/40
f 19/43/41 20/44/42 36/45/43 35/46/44
f 20/47/45 21/48/46 37/49/47 36/50/48
f 21/51/49 22/52/50 38/53/51 37/54/52
f 22/55/53 23/56/54 39/57/55 38/58/56
f 23/59/57 24/60/58 40/61/59 39/62/60
f 24/63/61 25/64/62 41/65/63 40/66/64
f 25/67/65 26/68/66 42/69/67 41/70/68
f 26/71/69 27/72/70 43/73/71 42/74/72
f 27/75/73 28/76/74 44/77/75 43/78/76
f 28/79/77 29/80/78 45/81/79 44/82/80
f 29/83/81 30/84/82 46/85/83 45/86/84
f 30/87/85 31/88/86 47/89/87 46/90/88
f 31/91/89 32/92/90 48/93/91 47/94/92
f 32/95/93 17/96/94 33/97/95 48/98/96
f 33/99/97 34/100/98 50/101/99 49/102/100
f 34/103/101 35/104/102 51/105/103 50/106/104
f 35/107/105 36/108/106 52/109/107 51/110/108
f 36/111/109 37/112/110 53/113/111 52/114/112
f 37/115/113 38/116/114 54/117/115 53/118/116
f 38/119/117 39/120/118 55/121/119 54/122/120
f 39/123/121 40/124/122 56/125/123 55/126/124
f 40/127/125 41/128/126 57/129/127 56/130/128
f 41/131/129 42/132/130 58/133/131 57/134/132
f 42/135/133 43/136/134 59/137/135 58/138/136
f 43/139/137 44/140/138 60/141/139 59/142/140
f 44/143/141 45/144/142 61/145/143 60/146/144
f 45/147/145 46/148/146 62/149/147 61/150/148
f 46/151/149 47/152/150 63/153/151 62/154/152
f 47/155/153 48/156/154 64/157/155 63/158/156
f 48/159/157 33/160/158 49/161/159 64/162/160
f 49/163/161 50/164/162 66/165/163 65/166/164
f 50/167/165 51/168/166 67/169/167 66/170/168
f 51/171/169 52/172/170 68/173/171 67/174/172
f 52/175/173 53/176/174 69/177/175 68/178/176
f 53/179/177 54/180/178 70/181/179 69/182/180
f 54/183/181 55/184/182 71/185/183 70/186/184
f 55/187/185 56/188/186 72/189/187 71/190/188
f 56/191/189 57/192/190 73/193/191 72/194/192
f 57/195/193 58/196/194 74/197/195 73/198/196
f 58/199/197 59/200/198 75/201/199 74/202/200
f 59/203/201 60/204/202 76/205/203 75/206/204
f 60/207/205 61/208/206 77/209/207 76/210/208
f 61/211/209 62/212/210 78/213/211 77/214/212
f 62/215/213 63/216/214 79/217/215 78/218/216
f 63/219/217 64/220/218 80/221/219 79/222/220
f 64/223/221 49/224/222 65/225/223 80/226/224
f 66/170/225 67/174/226 68/178/227 69/182/228 70/186/229 71/190/230 72/194/231 73/198/232 74/202/233 75/206/234 76/210/235 77/214/236 78/218/237 79/222/238 80/226/239 65/166/240
g default
v 16.177105 1.321999 -25.347619
v 16.335784 1.253637 -25.435931
v 16.081263 1.272261 -25.481327
v 16.239942 1.203899 -25.569639
v 15.581157 -1.853890 -23.959959
v 15.739836 -1.922252 -24.048271
v 15.676999 -1.804152 -23.826251
v 15.835678 -1.872515 -23.914563
vt 0.375000 0.000000
vt 0.625000 0.000000
vt 0.375000 0.250000
vt 0.625000 0.250000
vt 0.375000 0.500000
vt 0.625000 0.500000
vt 0.375000 0.750000
vt 0.625000 0.750000
vt 0.375000 1.000000
vt 0.625000 1.000000
vt 0.875000 0.000000
vt 0.875000 0.250000
vt 0.125000 0.000000
vt 0.125000 0.250000
vn 0.142380 0.890014 -0.433133
vn 0.142380 0.890014 -0.433133
vn 0.142380 0.890014 -0.433133
vn 0.142380 0.890014 -0.433133
vn -0.557660 -0.289401 -0.777986
vn -0.557660 -0.289401 -0.777986
vn -0.557660 -0.289401 -0.777986
vn -0.557660 -0.289401 -0.777986
vn -0.142380 -0.890014 0.433133
vn -0.142380 -0.890014 0.433133
vn -0.142380 -0.890014 0.433133
vn -0.142380 -0.890014 0.433133
vn 0.557660 0.289401 0.777986
vn 0.557660 0.289401 0.777986
vn 0.557660 0.289401 0.777986
vn 0.557660 0.289401 0.777986
vn 0.817767 -0.352310 -0.455120
vn 0.817767 -0.352310 -0.455120
vn 0.817767 -0.352310 -0.455120
vn 0.817767 -0.352310 -0.455120
vn -0.817767 0.352310 0.455120
vn -0.817767 0.352310 0.455120
vn -0.817767 0.352310 0.455120
vn -0.817767 0.352310 0.455120
s off
g pCube23
usemtl lambert60SG
f 81/227/241 82/228/242 84/230/243 83/229/244
f 83/229/245 84/230/246 86/232/247 85/231/248
f 85/231/249 86/232/250 88/234/251 87/233/252
f 87/233/253 88/234/254 82/236/255 81/235/256
f 82/228/257 88/237/258 86/238/259 84/230/260
f 87/239/261 81/227/262 83/229/263 85/240/264
g default
v 17.435438 1.004626 -26.092911
v 17.592548 0.985471 -26.205164
v 17.335275 0.961473 -26.225736
v 17.492385 0.942319 -26.337990
v 17.577508 -2.420754 -25.309574
v 17.734619 -2.439909 -25.421828
v 17.677671 -2.377601 -25.176749
v 17.834782 -2.396756 -25.289002
vt 0.375000 0.000000
vt 0.625000 0.000000
vt 0.375000 0.250000
vt 0.625000 0.250000
vt 0.375000 0.500000
vt 0.625000 0.500000
vt 0.375000 0.750000
vt 0.625000 0.750000
vt 0.375000 1.000000
vt 0.625000 1.000000
vt 0.875000 0.000000
vt 0.875000 0.250000
vt 0.125000 0.000000
vt 0.125000 0.250000
vn -0.068964 0.962918 -0.260831
vn -0.068964 0.962918 -0.260831
vn -0.068964 0.962918 -0.260831
vn -0.068964 0.962918 -0.260831
vn -0.582803 -0.251086 -0.772850
vn -0.582803 -0.251086 -0.772850
vn -0.582803 -0.251086 -0.772850
vn -0.582803 -0.251086 -0.772850
vn 0.068964 -0.962918 0.260831
vn 0.068964 -0.962918 0.260831
vn 0.068964 -0.962918 0.260831
vn 0.068964 -0.962918 0.260831
vn 0.582803 0.251086 0.772850
vn 0.582803 0.251086 0.772850
vn 0.582803 0.251086 0.772850
vn 0.582803 0.251086 0.772850
vn 0.809682 -0.098714 -0.578507
vn 0.809682 -0.098714 -0.578507
vn 0.809682 -0.098714 -0.578507
vn 0.809682 -0.098714 -0.578507
vn -0.809682 0.098714 0.578507
vn -0.809682 0.098714 0.578507
vn -0.809682 0.098714 0.578507
vn -0.809682 0.098714 0.578507
s off
g pCube22
usemtl lambert60SG
f 89/241/265 90/242/266 92/244/267 91/243/268
f 91/243/269 92/244/270 94/246/271 93/245/272
f 93/245/273 94/246/274 96/248/275 95/247/276
f 95/247/277 96/248/278 90/250/279 89/249/280
f 90/242/281 96/251/282 94/252/283 92/244/284
f 95/253/285 89/241/286 91/243/287 93/254/288
g default
v 16.120896 0.980840 -24.732854
v 18.066739 0.555494 -25.874116
v 16.127460 1.051592 -24.748030
v 18.073304 0.626246 -25.889293
v 15.895006 1.434764 -25.287170
v 17.840849 1.009418 -26.428433
v 15.578574 0.912875 -25.632178
v 17.524417 0.487529 -26.773440
v 15.572009 0.842122 -25.617002
v 17.517852 0.416776 -26.758264
v 15.888441 1.364012 -25.271994
v 17.834284 0.938665 -26.413256
vt 0.375000 0.000000
vt 0.625000 0.000000
vt 0.375000 0.250000
vt 0.625000 0.250000
vt 0.375000 0.375000
vt 0.625000 0.375000
vt 0.375000 0.500000
vt 0.625000 0.500000
vt 0.375000 0.750000
vt 0.625000 0.750000
vt 0.375000 0.875000
vt 0.625000 0.875000
vt 0.375000 1.000000
vt 0.625000 1.000000
vt 0.875000 0.000000
vt 0.750000 0.000000
vt 0.875000 0.250000
vt 0.750000 0.250000
vt 0.125000 0.000000
vt 0.250000 0.000000
vt 0.125000 0.250000
vt 0.250000 0.250000
vn 0.522812 0.132128 0.842146
vn 0.522812 0.132128 0.842146
vn 0.522812 0.132128 0.842146
vn 0.522812 0.132128 0.842146
vn 0.414202 0.816680 0.401836
vn 0.414202 0.816680 0.401836
vn 0.090352 0.973761 -0.208869
vn 0.090352 0.973761 -0.208869
vn -0.278900 0.641516 -0.714613
vn -0.278900 0.641516 -0.714613
vn -0.522812 -0.132128 -0.842146
vn -0.522812 -0.132128 -0.842146
vn -0.522812 -0.132128 -0.842146
vn -0.522812 -0.132128 -0.842146
vn 0.278900 -0.641516 0.714613
vn 0.278900 -0.641516 0.714613
vn -0.090352 -0.973761 0.208869
vn -0.090352 -0.973761 0.208869
vn -0.414202 -0.816680 -0.401836
vn -0.414202 -0.816680 -0.401836
vn 0.847646 -0.185289 -0.497156
vn 0.847646 -0.185289 -0.497156
vn 0.847646 -0.185289 -0.497156
vn 0.847646 -0.185289 -0.497156
vn 0.847646 -0.185289 -0.497156
vn 0.847646 -0.185289 -0.497156
vn -0.847646 0.185289 0.497156
vn -0.847646 0.185289 0.497156
vn -0.847646 0.185289 0.497156
vn -0.847646 0.185289 0.497156
vn -0.847646 0.185289 0.497156
vn -0.847646 0.185289 0.497156
s off
g pCube24
usemtl lambert18SG
f 97/255/289 98/256/290 100/258/291 99/257/292
s 1
f 99/257/293 100/258/294 102/260/295 101/259/296
f 101/259/296 102/260/295 104/262/297 103/261/298
s off
f 103/261/299 104/262/300 106/264/301 105/263/302
s 2
f 105/263/303 106/264/304 108/266/305 107/265/306
f 107/265/306 108/266/305 98/268/307 97/267/308
s 3
f 108/270/309 106/269/310 104/271/311 102/272/312
f 98/256/313 108/270/309 102/272/312 100/258/314
s 4
f 105/273/315 107/274/316 101/276/317 103/275/318
f 107/274/316 97/255/319 99/257/320 101/276/317
